<svg xmlns="http://www.w3.org/2000/svg" width="512" height="512" viewBox="0 0 407.8 407.8"><g transform="matrix(0.85 0 0 0.85 30.586069679260248 30.58612518310548)"><g xmlns="http://www.w3.org/2000/svg"><path d="M354 203.9c35.1-21 47-66.4 26.5-102 -20.5-35.6-65.8-48-101.5-28C278.3 33 245 0 203.9 0c-41.1 0-74.4 33-75 73.9 -35.8-19.9-81-7.6-101.5 28C6.8 137.5 18.7 182.9 53.8 203.9c-35.1 21-47 66.4-26.5 102 20.5 35.6 65.8 48 101.6 28 0.6 40.9 34 73.9 75 73.9 41.1 0 74.4-33 75-73.9 35.8 19.9 81 7.6 101.5-28C401 270.3 389.1 224.9 354 203.9zM203.9 272.7c-38 0-68.7-30.8-68.7-68.7s30.8-68.7 68.7-68.7c38 0 68.7 30.8 68.7 68.7S241.9 272.7 203.9 272.7z" data-original="#000000"/></g></g></svg>