<svg xmlns="http://www.w3.org/2000/svg" width="512" height="512" viewBox="0 0 512 512"><g transform="matrix(0.8499999999999999 0 0 0.8500000000000001 38.400000000000034 38.39999999999998)"><g xmlns="http://www.w3.org/2000/svg"><path d="M376 30c-27.8 0-53.3 8.8-75.7 26.2 -21.5 16.6-35.9 37.9-44.3 53.3 -8.4-15.4-22.8-36.6-44.3-53.3C189.3 38.8 163.8 30 136 30 58.5 30 0 93.4 0 177.5c0 90.9 72.9 153 183.4 247.1 18.8 16 40 34.1 62.1 53.4C248.4 480.6 252.1 482 256 482s7.6-1.4 10.5-4c22.1-19.3 43.3-37.4 62.1-53.4C439.1 330.5 512 268.4 512 177.5 512 93.4 453.5 30 376 30z" data-original="#000000"/></g></g></svg>