<svg xmlns="http://www.w3.org/2000/svg" width="512" height="512" viewBox="0 0 512 512"><g transform="matrix(0.8499999999999999 0 0 0.8500000000000001 38.40018268525597 38.40015020370481)"><g xmlns="http://www.w3.org/2000/svg"><path d="M511.3 197.3c-1.8-5.4-6.5-9.4-12.1-10.2l-158.7-23.1L269.5 20.2c-2.5-5.1-7.7-8.4-13.4-8.4 -5.7 0-10.9 3.2-13.5 8.4l-71 143.8 -158.7 23.1c-5.6 0.8-10.3 4.8-12.1 10.2 -1.8 5.4-0.3 11.4 3.8 15.4l114.8 112L92.3 482.7c-1 5.6 1.3 11.3 6 14.7 2.6 1.9 5.7 2.9 8.8 2.9 2.4 0 4.8-0.6 7-1.7l142-74.6 142 74.6c5.1 2.7 11.2 2.2 15.8-1.1 4.6-3.4 6.9-9 6-14.7l-27.1-158.1 114.9-112C511.6 208.6 513 202.7 511.3 197.3z" data-original="#000000"/></g></g></svg>